<svg width="174" height="174" viewBox="0 0 174 174" fill="none" xmlns="http://www.w3.org/2000/svg">
<path d="M156.954 144.095C146.602 126.198 130.65 113.366 112.033 107.283C121.242 101.801 128.396 93.4476 132.398 83.5059C136.4 73.5642 137.027 62.5838 134.184 52.2509C131.342 41.918 125.185 32.8039 116.661 26.3084C108.138 19.8128 97.7169 16.2949 87.0001 16.2949C76.2833 16.2949 65.8627 19.8128 57.3387 26.3084C48.8147 32.8039 42.6586 41.918 39.8158 52.2509C36.973 62.5838 37.6006 73.5642 41.6023 83.5059C45.604 93.4476 52.7586 101.801 61.9672 107.283C43.3506 113.359 27.3983 126.192 17.0467 144.095C16.6671 144.714 16.4153 145.402 16.3061 146.12C16.197 146.838 16.2328 147.571 16.4113 148.274C16.5899 148.978 16.9076 149.639 17.3457 150.218C17.7838 150.797 18.3334 151.283 18.9622 151.646C19.591 152.009 20.2861 152.243 21.0066 152.333C21.7271 152.423 22.4583 152.368 23.1572 152.171C23.8561 151.974 24.5084 151.639 25.0757 151.186C25.643 150.733 26.1138 150.17 26.4603 149.532C39.2656 127.402 61.8992 114.188 87.0001 114.188C112.101 114.188 134.735 127.402 147.54 149.532C147.886 150.17 148.357 150.733 148.924 151.186C149.492 151.639 150.144 151.974 150.843 152.171C151.542 152.368 152.273 152.423 152.994 152.333C153.714 152.243 154.409 152.009 155.038 151.646C155.667 151.283 156.216 150.797 156.655 150.218C157.093 149.639 157.41 148.978 157.589 148.274C157.767 147.571 157.803 146.838 157.694 146.12C157.585 145.402 157.333 144.714 156.954 144.095ZM48.9376 65.2509C48.9376 57.7229 51.1699 50.3639 55.3523 44.1045C59.5346 37.8452 65.4792 32.9666 72.4342 30.0857C79.3892 27.2049 87.0423 26.4511 94.4257 27.9198C101.809 29.3884 108.591 33.0135 113.914 38.3367C119.237 43.6598 122.863 50.4419 124.331 57.8253C125.8 65.2087 125.046 72.8618 122.165 79.8168C119.284 86.7718 114.406 92.7164 108.146 96.8987C101.887 101.081 94.5282 103.313 87.0001 103.313C76.9086 103.303 67.2335 99.289 60.0978 92.1532C52.962 85.0175 48.9484 75.3424 48.9376 65.2509Z" fill="white"/>
</svg>
