<svg width="339" height="417" viewBox="0 0 339 417" fill="none" xmlns="http://www.w3.org/2000/svg">
<path d="M252.334 0.208682C251.448 -0.781688 219.521 0.599618 191.739 30.7538C163.956 60.8819 168.231 95.4406 168.856 96.3267C169.482 97.2128 208.471 98.5941 233.361 63.5402C258.25 28.4863 253.22 1.22511 252.334 0.208682ZM338.705 305.998C337.454 303.496 278.11 273.837 283.635 216.813C289.16 159.762 327.289 144.125 327.889 142.431C328.488 140.737 312.329 121.842 295.207 112.277C282.634 105.533 268.72 101.67 254.471 100.966C251.656 100.888 241.883 98.4899 221.789 103.989C208.549 107.612 178.708 119.34 170.498 119.809C162.262 120.278 137.764 106.204 111.415 102.477C94.5523 99.2196 76.6736 105.892 63.8769 111.026C51.1064 116.134 26.8162 130.677 9.82358 169.327C-7.16908 207.952 1.71818 269.146 8.0774 288.172C14.4366 307.171 24.3664 338.316 41.2548 361.042C56.2667 386.688 76.1784 404.488 84.4923 410.535C92.8062 416.581 116.262 420.595 132.525 412.281C145.609 404.254 169.221 399.641 178.551 399.979C187.856 400.318 206.204 403.993 224.994 414.027C239.876 419.161 253.95 417.024 268.05 411.29C282.149 405.531 302.556 383.69 326.377 339.41C335.421 318.821 339.539 307.692 338.705 305.998Z" fill="white"/>
<path d="M252.334 0.208682C251.448 -0.781688 219.521 0.599618 191.739 30.7538C163.956 60.8819 168.231 95.4406 168.856 96.3267C169.482 97.2128 208.471 98.5941 233.361 63.5402C258.25 28.4863 253.22 1.22511 252.334 0.208682ZM338.705 305.998C337.454 303.496 278.11 273.837 283.635 216.813C289.16 159.762 327.289 144.125 327.889 142.431C328.488 140.737 312.329 121.842 295.207 112.277C282.634 105.533 268.72 101.67 254.471 100.966C251.656 100.888 241.883 98.4899 221.789 103.989C208.549 107.612 178.708 119.34 170.498 119.809C162.262 120.278 137.764 106.204 111.415 102.477C94.5523 99.2196 76.6736 105.892 63.8769 111.026C51.1064 116.134 26.8162 130.677 9.82358 169.327C-7.16908 207.952 1.71818 269.146 8.0774 288.172C14.4366 307.171 24.3664 338.316 41.2548 361.042C56.2667 386.688 76.1784 404.488 84.4923 410.535C92.8062 416.581 116.262 420.595 132.525 412.281C145.609 404.254 169.221 399.641 178.551 399.979C187.856 400.318 206.204 403.993 224.994 414.027C239.876 419.161 253.95 417.024 268.05 411.29C282.149 405.531 302.556 383.69 326.377 339.41C335.421 318.821 339.539 307.692 338.705 305.998Z" fill="white"/>
</svg>
