<svg width="149" height="137" viewBox="0 0 149 137" fill="none" xmlns="http://www.w3.org/2000/svg">
<path d="M136.719 0.9375H12.2812C9.28094 0.9375 6.40356 2.12935 4.28206 4.25085C2.16055 6.37236 0.968703 9.24974 0.968703 12.25V125.375C0.955921 127.531 1.56548 129.645 2.72426 131.464C3.88305 133.282 5.54184 134.728 7.50167 135.627C8.99929 136.322 10.63 136.684 12.2812 136.688C14.9368 136.681 17.5044 135.734 19.5283 134.015C19.562 133.993 19.5929 133.967 19.6202 133.937L42.33 114.062H136.719C139.719 114.062 142.596 112.871 144.718 110.749C146.839 108.628 148.031 105.75 148.031 102.75V12.25C148.031 9.24974 146.839 6.37236 144.718 4.25085C142.596 2.12935 139.719 0.9375 136.719 0.9375ZM136.719 102.75H42.33C39.6661 102.749 37.0872 103.688 35.0476 105.401L34.9628 105.479L12.2812 125.375V12.25H136.719V102.75ZM46.2187 46.1875C46.2187 44.6874 46.8146 43.2487 47.8754 42.1879C48.9361 41.1272 50.3748 40.5312 51.875 40.5312H97.125C98.6251 40.5312 100.064 41.1272 101.125 42.1879C102.185 43.2487 102.781 44.6874 102.781 46.1875C102.781 47.6876 102.185 49.1263 101.125 50.1871C100.064 51.2478 98.6251 51.8438 97.125 51.8438H51.875C50.3748 51.8438 48.9361 51.2478 47.8754 50.1871C46.8146 49.1263 46.2187 47.6876 46.2187 46.1875ZM46.2187 68.8125C46.2187 67.3124 46.8146 65.8737 47.8754 64.8129C48.9361 63.7522 50.3748 63.1562 51.875 63.1562H97.125C98.6251 63.1562 100.064 63.7522 101.125 64.8129C102.185 65.8737 102.781 67.3124 102.781 68.8125C102.781 70.3126 102.185 71.7513 101.125 72.8121C100.064 73.8728 98.6251 74.4688 97.125 74.4688H51.875C50.3748 74.4688 48.9361 73.8728 47.8754 72.8121C46.8146 71.7513 46.2187 70.3126 46.2187 68.8125Z" fill="white"/>
</svg>
