<svg width="156" height="156" viewBox="0 0 156 156" fill="none" xmlns="http://www.w3.org/2000/svg">
<path d="M131.625 29.25H107.25V24.375C107.25 20.4962 105.709 16.7763 102.966 14.0336C100.224 11.2908 96.5038 9.75 92.625 9.75H63.375C59.4962 9.75 55.7763 11.2908 53.0336 14.0336C50.2908 16.7763 48.75 20.4962 48.75 24.375V29.25H24.375C23.0821 29.25 21.8421 29.7636 20.9279 30.6779C20.0136 31.5921 19.5 32.8321 19.5 34.125C19.5 35.4179 20.0136 36.6579 20.9279 37.5721C21.8421 38.4864 23.0821 39 24.375 39H29.25V126.75C29.25 129.336 30.2772 131.816 32.1057 133.644C33.9342 135.473 36.4141 136.5 39 136.5H117C119.586 136.5 122.066 135.473 123.894 133.644C125.723 131.816 126.75 129.336 126.75 126.75V39H131.625C132.918 39 134.158 38.4864 135.072 37.5721C135.986 36.6579 136.5 35.4179 136.5 34.125C136.5 32.8321 135.986 31.5921 135.072 30.6779C134.158 29.7636 132.918 29.25 131.625 29.25ZM58.5 24.375C58.5 23.0821 59.0136 21.8421 59.9279 20.9279C60.8421 20.0136 62.0821 19.5 63.375 19.5H92.625C93.9179 19.5 95.1579 20.0136 96.0721 20.9279C96.9864 21.8421 97.5 23.0821 97.5 24.375V29.25H58.5V24.375ZM117 126.75H39V39H117V126.75ZM68.25 63.375V102.375C68.25 103.668 67.7364 104.908 66.8221 105.822C65.9079 106.736 64.6679 107.25 63.375 107.25C62.0821 107.25 60.8421 106.736 59.9279 105.822C59.0136 104.908 58.5 103.668 58.5 102.375V63.375C58.5 62.0821 59.0136 60.8421 59.9279 59.9279C60.8421 59.0136 62.0821 58.5 63.375 58.5C64.6679 58.5 65.9079 59.0136 66.8221 59.9279C67.7364 60.8421 68.25 62.0821 68.25 63.375ZM97.5 63.375V102.375C97.5 103.668 96.9864 104.908 96.0721 105.822C95.1579 106.736 93.9179 107.25 92.625 107.25C91.3321 107.25 90.0921 106.736 89.1779 105.822C88.2636 104.908 87.75 103.668 87.75 102.375V63.375C87.75 62.0821 88.2636 60.8421 89.1779 59.9279C90.0921 59.0136 91.3321 58.5 92.625 58.5C93.9179 58.5 95.1579 59.0136 96.0721 59.9279C96.9864 60.8421 97.5 62.0821 97.5 63.375Z" fill="white"/>
</svg>
