<svg width="174" height="174" viewBox="0 0 174 174" fill="none" xmlns="http://www.w3.org/2000/svg">
<path d="M152.25 70.6875C152.25 72.1296 151.677 73.5127 150.657 74.5324C149.638 75.5521 148.255 76.125 146.812 76.125C145.37 76.125 143.987 75.5521 142.968 74.5324C141.948 73.5127 141.375 72.1296 141.375 70.6875V40.3191L96.2913 85.4095C95.271 86.4298 93.8872 87.003 92.4443 87.003C91.0014 87.003 89.6176 86.4298 88.5973 85.4095C87.577 84.3892 87.0038 83.0054 87.0038 81.5625C87.0038 80.1196 87.577 78.7358 88.5973 77.7155L133.681 32.625H103.312C101.87 32.625 100.487 32.0521 99.4676 31.0324C98.4479 30.0127 97.875 28.6296 97.875 27.1875C97.875 25.7454 98.4479 24.3623 99.4676 23.3426C100.487 22.3229 101.87 21.75 103.312 21.75H146.812C148.255 21.75 149.638 22.3229 150.657 23.3426C151.677 24.3623 152.25 25.7454 152.25 27.1875V70.6875ZM125.062 87C123.62 87 122.237 87.5729 121.218 88.5926C120.198 89.6123 119.625 90.9954 119.625 92.4375V141.375H32.625V54.375H81.5625C83.0046 54.375 84.3877 53.8021 85.4074 52.7824C86.4271 51.7627 87 50.3796 87 48.9375C87 47.4954 86.4271 46.1123 85.4074 45.0926C84.3877 44.0729 83.0046 43.5 81.5625 43.5H32.625C29.7408 43.5 26.9747 44.6458 24.9352 46.6852C22.8958 48.7247 21.75 51.4908 21.75 54.375V141.375C21.75 144.259 22.8958 147.025 24.9352 149.065C26.9747 151.104 29.7408 152.25 32.625 152.25H119.625C122.509 152.25 125.275 151.104 127.315 149.065C129.354 147.025 130.5 144.259 130.5 141.375V92.4375C130.5 90.9954 129.927 89.6123 128.907 88.5926C127.888 87.5729 126.505 87 125.062 87Z" fill="white"/>
</svg>
