<svg width="175" height="175" viewBox="0 0 175 175" fill="none" xmlns="http://www.w3.org/2000/svg">
<path d="M147.656 27.3438H27.3438C24.4429 27.3438 21.6609 28.4961 19.6098 30.5473C17.5586 32.5984 16.4063 35.3804 16.4062 38.2812V136.719C16.4063 139.62 17.5586 142.402 19.6098 144.453C21.6609 146.504 24.4429 147.656 27.3438 147.656H147.656C150.557 147.656 153.339 146.504 155.39 144.453C157.441 142.402 158.594 139.62 158.594 136.719V38.2812C158.594 35.3804 157.441 32.5984 155.39 30.5473C153.339 28.4961 150.557 27.3438 147.656 27.3438ZM147.656 38.2812V108.521L129.835 90.7061C128.819 89.6902 127.613 88.8843 126.286 88.3345C124.959 87.7846 123.537 87.5016 122.1 87.5016C120.664 87.5016 119.241 87.7846 117.914 88.3345C116.587 88.8843 115.381 89.6902 114.365 90.7061L100.693 104.378L70.6152 74.2998C68.5643 72.2502 65.7834 71.0988 62.8838 71.0988C59.9842 71.0988 57.2033 72.2502 55.1523 74.2998L27.3438 102.108V38.2812H147.656ZM27.3438 117.578L62.8906 82.0312L117.578 136.719H27.3438V117.578ZM147.656 136.719H133.048L108.438 112.109L122.11 98.4375L147.656 123.99V136.719ZM98.4375 68.3594C98.4375 66.737 98.9186 65.151 99.82 63.802C100.721 62.453 102.003 61.4016 103.501 60.7807C105 60.1598 106.65 59.9974 108.241 60.3139C109.832 60.6304 111.294 61.4117 112.441 62.5589C113.588 63.7061 114.37 65.1678 114.686 66.759C115.003 68.3503 114.84 69.9996 114.219 71.4986C113.598 72.9975 112.547 74.2787 111.198 75.18C109.849 76.0814 108.263 76.5625 106.641 76.5625C104.465 76.5625 102.379 75.6982 100.84 74.1599C99.3018 72.6215 98.4375 70.535 98.4375 68.3594Z" fill="white"/>
</svg>
