<svg width="365" height="376" viewBox="0 0 365 376" fill="none" xmlns="http://www.w3.org/2000/svg">
<path d="M364.808 191.518C364.808 176.114 363.566 164.872 360.879 153.215H186.136V222.743H288.706C286.639 240.022 275.472 266.044 250.656 283.529L250.308 285.857L305.558 328.943L309.386 329.328C344.541 296.644 364.808 248.557 364.808 191.518Z" fill="#4285F4"/>
<path d="M186.136 374.708C236.387 374.708 278.573 358.053 309.386 329.327L250.656 283.528C234.94 294.561 213.846 302.263 186.136 302.263C136.919 302.263 95.1461 269.581 80.2553 224.408L78.0727 224.595L20.6224 269.352L19.8711 271.454C50.4766 332.656 113.343 374.708 186.136 374.708Z" fill="#34A853"/>
<path d="M80.2576 224.408C76.3285 212.75 74.0547 200.259 74.0547 187.353C74.0547 174.446 76.3285 161.956 80.0509 150.299L79.9468 147.816L21.7767 102.34L19.8734 103.251C7.25943 128.648 0.0214844 157.168 0.0214844 187.353C0.0214844 217.538 7.25943 246.057 19.8734 271.454L80.2576 224.408Z" fill="#FBBC05"/>
<path d="M186.136 72.4431C221.084 72.4431 244.658 87.6396 258.1 100.339L310.626 48.7121C278.367 18.5273 236.386 0 186.136 0C113.343 0 50.4766 42.0503 19.8711 103.252L80.0485 150.3C95.146 105.126 136.919 72.4431 186.136 72.4431Z" fill="#EB4335"/>
</svg>
