<svg width="175" height="175" viewBox="0 0 175 175" fill="none" xmlns="http://www.w3.org/2000/svg">
<path d="M76.5625 147.656C76.5625 149.107 75.9863 150.498 74.9607 151.523C73.9351 152.549 72.5442 153.125 71.0938 153.125H32.8125C29.9117 153.125 27.1297 151.973 25.0785 149.921C23.0273 147.87 21.875 145.088 21.875 142.188V32.8125C21.875 29.9117 23.0273 27.1297 25.0785 25.0785C27.1297 23.0273 29.9117 21.875 32.8125 21.875H71.0938C72.5442 21.875 73.9351 22.4512 74.9607 23.4768C75.9863 24.5024 76.5625 25.8933 76.5625 27.3438C76.5625 28.7942 75.9863 30.1851 74.9607 31.2107C73.9351 32.2363 72.5442 32.8125 71.0938 32.8125H32.8125V142.188H71.0938C72.5442 142.188 73.9351 142.764 74.9607 143.789C75.9863 144.815 76.5625 146.206 76.5625 147.656ZM151.525 83.6309L124.182 56.2871C123.155 55.2609 121.764 54.6845 120.312 54.6845C118.861 54.6845 117.47 55.2609 116.443 56.2871C115.417 57.3133 114.841 58.705 114.841 60.1562C114.841 61.6075 115.417 62.9992 116.443 64.0254L134.456 82.0312H71.0938C69.6433 82.0312 68.2524 82.6074 67.2268 83.633C66.2012 84.6586 65.625 86.0496 65.625 87.5C65.625 88.9504 66.2012 90.3414 67.2268 91.367C68.2524 92.3926 69.6433 92.9688 71.0938 92.9688H134.456L116.443 110.975C115.417 112.001 114.841 113.393 114.841 114.844C114.841 116.295 115.417 117.687 116.443 118.713C117.47 119.739 118.861 120.316 120.312 120.316C121.764 120.316 123.155 119.739 124.182 118.713L151.525 91.3691C152.034 90.8612 152.437 90.2581 152.712 89.5942C152.988 88.9303 153.129 88.2187 153.129 87.5C153.129 86.7813 152.988 86.0697 152.712 85.4058C152.437 84.7419 152.034 84.1388 151.525 83.6309Z" fill="white"/>
</svg>
