<svg width="170" height="170" viewBox="0 0 170 170" fill="none" xmlns="http://www.w3.org/2000/svg">
<path d="M85 116.875C93.4511 116.866 101.554 113.505 107.529 107.529C113.505 101.554 116.866 93.4511 116.875 85V42.5C116.875 34.0462 113.517 25.9387 107.539 19.961C101.561 13.9832 93.4538 10.625 85 10.625C76.5462 10.625 68.4387 13.9832 62.461 19.961C56.4833 25.9387 53.125 34.0462 53.125 42.5V85C53.1338 93.4511 56.4949 101.554 62.4707 107.529C68.4465 113.505 76.5489 116.866 85 116.875ZM63.75 42.5C63.75 36.8641 65.9888 31.4591 69.974 27.474C73.9591 23.4888 79.3641 21.25 85 21.25C90.6359 21.25 96.0409 23.4888 100.026 27.474C104.011 31.4591 106.25 36.8641 106.25 42.5V85C106.25 90.6359 104.011 96.0409 100.026 100.026C96.0409 104.011 90.6359 106.25 85 106.25C79.3641 106.25 73.9591 104.011 69.974 100.026C65.9888 96.0409 63.75 90.6359 63.75 85V42.5ZM90.3125 137.859V154.062C90.3125 155.471 89.7528 156.823 88.7565 157.819C87.7602 158.815 86.409 159.375 85 159.375C83.591 159.375 82.2398 158.815 81.2435 157.819C80.2472 156.823 79.6875 155.471 79.6875 154.062V137.859C66.5898 136.527 54.4516 130.384 45.6201 120.621C36.7885 110.857 31.8912 98.1653 31.875 85C31.875 83.591 32.4347 82.2398 33.431 81.2435C34.4273 80.2472 35.7785 79.6875 37.1875 79.6875C38.5965 79.6875 39.9477 80.2472 40.944 81.2435C41.9403 82.2398 42.5 83.591 42.5 85C42.5 96.2717 46.9777 107.082 54.948 115.052C62.9183 123.022 73.7283 127.5 85 127.5C96.2717 127.5 107.082 123.022 115.052 115.052C123.022 107.082 127.5 96.2717 127.5 85C127.5 83.591 128.06 82.2398 129.056 81.2435C130.052 80.2472 131.404 79.6875 132.812 79.6875C134.221 79.6875 135.573 80.2472 136.569 81.2435C137.565 82.2398 138.125 83.591 138.125 85C138.109 98.1653 133.211 110.857 124.38 120.621C115.548 130.384 103.41 136.527 90.3125 137.859Z" fill="white"/>
</svg>
