<svg width="189" height="195" viewBox="0 0 189 195" fill="none" xmlns="http://www.w3.org/2000/svg">
<path d="M181.307 85.281L22.5455 1.78128C19.8693 0.397991 16.7998 -0.202293 13.7446 0.0601669C10.6894 0.322627 7.79319 1.43541 5.44066 3.25069C3.08813 5.06597 1.39065 7.49783 0.573719 10.2232C-0.243214 12.9486 -0.140935 15.8385 0.866969 18.5091L30.1623 97.2891C30.1585 97.318 30.1585 97.3473 30.1623 97.3762C30.157 97.405 30.157 97.4344 30.1623 97.4633L0.866969 176.417C0.059797 178.518 -0.188718 180.767 0.142282 182.974C0.473282 185.182 1.37414 187.284 2.76924 189.104C4.16435 190.925 6.01299 192.41 8.16001 193.436C10.307 194.462 12.6898 194.998 15.1083 195C17.7323 194.994 20.3102 194.364 22.5927 193.171L181.269 109.532C183.61 108.324 185.56 106.564 186.918 104.432C188.277 102.3 188.995 99.8741 189 97.402C189.005 94.9299 188.296 92.5011 186.945 90.3649C185.595 88.2287 183.652 86.462 181.317 85.2461L181.307 85.281ZM15.1083 181.067V180.989L43.5909 104.438H98.2691C100.274 104.438 102.197 103.704 103.615 102.398C105.033 101.091 105.829 99.3195 105.829 97.472C105.829 95.6244 105.033 93.8525 103.615 92.5461C102.197 91.2396 100.274 90.5057 98.2691 90.5057H43.6665L15.165 13.981L15.1083 13.8765L173.87 97.3239L15.1083 181.067Z" fill="white" fill-opacity="0.4"/>
</svg>
